# xmcd
# 
# Track frame offsets:
#     180
#     18529
#     32223
#     55211
# 
# Disc length: 1013
# 
# Revision: 0
# Processed by: cddbd v1.5.2PL0 Copyright (c) Steve Scherf et al.
# Submitted via: BonkEnc v1.0
# 
DISCID=2e03f304
DTITLE=Johnny Come Lately  - Live At Quaker Meadow
DYEAR=2005
DGENRE=Christian Rock
TTITLE0=Never Looking Back
TTITLE1=Every Move I Make
TTITLE2=Amazing Love
TTITLE3=Here I Am To Worship
EXTD=
EXTT0=
EXTT1=
EXTT2=
EXTT3=
PLAYORDER=
